# xmcd
#
# Track frame offsets:
#	182
#	18212
#	33895
#	47655
#	64572
#	80125
#	102927
#	119137
#	132700
#	152277
#	168432
#	181612
#
# Disc length: 2703 seconds
#
# Revision: 0
# Processed by: cddbd v1.4PL0 Copyright (c) Steve Scherf et al.
# Submitted via: EasyCDDAExtractor 4.6.0.1
#
DISCID=940a8d0c
DTITLE=Leslie Satcher - Love Letters
DYEAR=2001
DGENRE=Country
TTITLE0=Love Letters From Old Mexico
TTITLE1=Slow Way Home
TTITLE2=Every Time It Rains
TTITLE3=Goin' Down Hard
TTITLE4=It Can't Be Good To Hurt That Bad
TTITLE5=Ode To Billie Joe
TTITLE6=A Man With Eighteen Wheels
TTITLE7=I will Survive
TTITLE8=Burn Me Down
TTITLE9=Look Who's Talking Now
TTITLE10=Texarkana (Wide Open Spaces)
TTITLE11=Bonus Track
EXTD=
EXTT0=
EXTT1=
EXTT2=
EXTT3=
EXTT4=
EXTT5=
EXTT6=
EXTT7=
EXTT8=
EXTT9=
EXTT10=
EXTT11=
PLAYORDER=
